<svg width="52" height="133" viewBox="0 0 52 133" fill="none" xmlns="http://www.w3.org/2000/svg">
<mask id="mask0_41_2119" style="mask-type:alpha" maskUnits="userSpaceOnUse" x="0" y="0" width="52" height="133">
<rect width="52" height="133" rx="8" fill="white"/>
</mask>
<g mask="url(#mask0_41_2119)">
<path fill-rule="evenodd" clip-rule="evenodd" d="M49.3078 77.8459C59.7648 83.8564 64.6144 95.8724 62.0069 107.043C59.7481 103.33 56.5489 100.118 52.5154 97.8001C45.5355 93.7881 37.501 93.2817 30.4494 95.7306C30.4564 91.2329 31.6018 86.676 34.0038 82.4971C35.7879 79.3932 38.1011 76.7833 40.7643 74.7158C43.6921 75.2458 46.5805 76.2783 49.3078 77.8459ZM65.9084 121.004C65.9161 116.09 64.5642 111.245 62.0069 107.043C61.4279 109.523 60.4812 111.962 59.1465 114.284C57.3624 117.388 55.0492 119.998 52.386 122.065C49.4582 121.535 46.5699 120.503 43.8425 118.935C35.2425 113.992 30.4351 104.987 30.4494 95.7306C24.5908 97.7652 19.4107 101.84 16.0775 107.639C14.7428 109.961 13.7961 112.399 13.2171 114.88C8.31963 106.831 7.8432 96.43 12.87 87.6846C18.6475 77.633 29.9739 72.7624 40.7643 74.7158C49.0655 68.2715 60.7667 67.0973 70.4417 72.6584C83.2206 80.0035 87.6256 96.3173 80.2804 109.096C76.9472 114.895 71.767 118.97 65.9084 121.004ZM13.2171 114.88C15.4759 118.592 18.6752 121.804 22.7087 124.122C32.3837 129.684 44.0849 128.509 52.386 122.065C56.9512 122.891 61.6122 122.496 65.9084 121.004C65.9015 125.502 64.7561 130.059 62.3541 134.238C55.0089 147.017 38.6951 151.422 25.9162 144.077C15.4593 138.066 10.6096 126.05 13.2171 114.88Z" fill="#333333"/>
</g>
</svg>
