<svg width="48" height="48" viewBox="0 0 48 48" fill="none" xmlns="http://www.w3.org/2000/svg">
<rect width="48" height="48" rx="16" fill="#FFE6FB"/>
<path fill-rule="evenodd" clip-rule="evenodd" d="M16.54 14H19.92C21.33 14 22.46 15.15 22.46 16.561V19.97C22.46 21.39 21.33 22.53 19.92 22.53H16.54C15.14 22.53 14 21.39 14 19.97V16.561C14 15.15 15.14 14 16.54 14ZM16.54 25.4697H19.92C21.33 25.4697 22.46 26.6107 22.46 28.0307V31.4397C22.46 32.8497 21.33 33.9997 19.92 33.9997H16.54C15.14 33.9997 14 32.8497 14 31.4397V28.0307C14 26.6107 15.14 25.4697 16.54 25.4697ZM31.46 14H28.08C26.67 14 25.54 15.15 25.54 16.561V19.97C25.54 21.39 26.67 22.53 28.08 22.53H31.46C32.86 22.53 34 21.39 34 19.97V16.561C34 15.15 32.86 14 31.46 14ZM28.08 25.4697H31.46C32.86 25.4697 34 26.6107 34 28.0307V31.4397C34 32.8497 32.86 33.9997 31.46 33.9997H28.08C26.67 33.9997 25.54 32.8497 25.54 31.4397V28.0307C25.54 26.6107 26.67 25.4697 28.08 25.4697Z" fill="#252836"/>
</svg>
