<svg width="15" height="11" viewBox="0 0 15 11" fill="none" xmlns="http://www.w3.org/2000/svg">
<path fill-rule="evenodd" clip-rule="evenodd" d="M13.6197 10.6279L9.75514 5.89143L8.22289 6.98744C7.89185 7.22444 7.4524 7.22444 7.12136 6.98744L5.59055 5.89294L1.75506 10.6424C1.93993 10.7279 2.14175 10.7734 2.34841 10.7734H12.9958C13.2136 10.7734 13.4266 10.7229 13.6197 10.6279ZM4.79151 5.32144L0.896484 2.53543V9.27344C0.896484 9.51094 0.951173 9.74294 1.05281 9.95094L4.79151 5.32144ZM14.4478 2.53543L10.5547 5.31993L14.3069 9.91794C14.3989 9.71844 14.4478 9.49844 14.4478 9.27344V2.53543ZM1.11766 1.47743L7.67213 6.16544L14.2266 1.47743C14.169 1.38243 14.1008 1.29344 14.0224 1.21294C13.7504 0.931436 13.3811 0.773438 12.9958 0.773438H2.34841C1.96316 0.773438 1.59389 0.931436 1.3219 1.21294C1.24349 1.29344 1.17525 1.38243 1.11766 1.47743Z" fill="#ABABAB"/>
</svg>
