<svg width="16" height="16" viewBox="0 0 16 16" fill="none" xmlns="http://www.w3.org/2000/svg">
<path id="Vector" d="M12.0233 11.4628L15.2355 14.6743L14.1743 15.7355L10.9628 12.5233C9.7678 13.4812 8.2815 14.0022 6.75 14C3.024 14 0 10.976 0 7.25C0 3.524 3.024 0.5 6.75 0.5C10.476 0.5 13.5 3.524 13.5 7.25C13.5022 8.7815 12.9812 10.2678 12.0233 11.4628ZM10.5188 10.9063C11.4706 9.92741 12.0022 8.61532 12 7.25C12 4.349 9.65025 2 6.75 2C3.849 2 1.5 4.349 1.5 7.25C1.5 10.1503 3.849 12.5 6.75 12.5C8.11532 12.5022 9.42741 11.9706 10.4063 11.0188L10.5188 10.9063Z" fill="#969DA5"/>
</svg>
