<svg width="42" height="42" viewBox="0 0 42 42" fill="none" xmlns="http://www.w3.org/2000/svg">
<path fill-rule="evenodd" clip-rule="evenodd" d="M13.2965 7.85225C13.7638 5.55975 15.8043 3.9375 18.1405 3.9375H23.8595C26.1958 3.9375 28.2345 5.55975 28.7035 7.85225C28.7552 8.10469 28.8903 8.3324 29.0871 8.49873C29.2839 8.66506 29.531 8.76035 29.7885 8.76925H29.8463C32.3015 8.87775 34.188 9.17875 35.763 10.213C36.7553 10.864 37.6093 11.7005 38.2743 12.6788C39.102 13.8932 39.466 15.2898 39.641 16.9768C39.8125 18.627 39.8125 20.6938 39.8125 23.3118V23.4605C39.8125 26.0785 39.8125 28.147 39.641 29.7955C39.466 31.4825 39.102 32.879 38.2743 34.0952C37.6072 35.0741 36.7538 35.9119 35.763 36.561C34.5328 37.3678 33.1205 37.7248 31.409 37.8945C29.7325 38.0625 27.6308 38.0625 24.9603 38.0625H17.0398C14.3693 38.0625 12.2675 38.0625 10.591 37.8945C8.8795 37.7248 7.46725 37.3695 6.237 36.561C5.24599 35.9114 4.39266 35.0729 3.72575 34.0935C2.898 32.879 2.534 31.4825 2.359 29.7955C2.1875 28.147 2.1875 26.0785 2.1875 23.4605V23.3118C2.1875 20.6938 2.1875 18.627 2.359 16.9768C2.534 15.2898 2.898 13.8932 3.72575 12.6788C4.39266 11.6993 5.24599 10.8608 6.237 10.2113C7.812 9.17875 9.6985 8.87775 12.1538 8.771L12.1835 8.76925H12.2115C12.469 8.76035 12.7161 8.66506 12.9129 8.49873C13.1097 8.3324 13.2448 8.10469 13.2965 7.85225ZM18.1405 6.5625C17.0205 6.5625 16.0808 7.33775 15.869 8.3755C15.5278 10.0555 14.0368 11.3785 12.243 11.3943C9.884 11.4993 8.6205 11.788 7.6755 12.4075C6.97354 12.8681 6.36885 13.4621 5.89575 14.1557C5.41275 14.8645 5.12225 15.7727 4.96825 17.248C4.81425 18.746 4.8125 20.678 4.8125 23.387C4.8125 26.096 4.8125 28.0263 4.97 29.5243C5.12225 30.9995 5.41275 31.9077 5.8975 32.6182C6.3665 33.3078 6.97025 33.9027 7.67725 34.3647C8.407 34.8442 9.3415 35.133 10.8518 35.2835C12.3813 35.4358 14.3518 35.4375 17.1115 35.4375H24.8885C27.6465 35.4375 29.617 35.4375 31.1483 35.2835C32.6585 35.133 33.593 34.846 34.3228 34.3665C35.0298 33.9028 35.6353 33.3078 36.1043 32.6165C36.5873 31.9078 36.8778 30.9995 37.0317 29.5243C37.1858 28.0263 37.1875 26.0942 37.1875 23.387C37.1875 20.678 37.1875 18.746 37.03 17.248C36.8778 15.7727 36.5872 14.8645 36.1025 14.1557C35.6299 13.4612 35.0252 12.8665 34.3228 12.4058C33.3813 11.788 32.1178 11.4993 29.7553 11.3943C27.9633 11.3768 26.4723 10.0572 26.131 8.3755C26.019 7.85797 25.7318 7.39496 25.318 7.06465C24.9041 6.73433 24.389 6.55697 23.8595 6.5625H18.1405Z" fill="#F703D0"/>
<path d="M30.5719 16.5719C30.3258 16.8181 30.1875 17.1519 30.1875 17.5C30.1875 17.8481 30.3258 18.1819 30.5719 18.4281C30.8181 18.6742 31.1519 18.8125 31.5 18.8125H33.25C33.5981 18.8125 33.9319 18.6742 34.1781 18.4281C34.4242 18.1819 34.5625 17.8481 34.5625 17.5C34.5625 17.1519 34.4242 16.8181 34.1781 16.5719C33.9319 16.3258 33.5981 16.1875 33.25 16.1875H31.5C31.1519 16.1875 30.8181 16.3258 30.5719 16.5719Z" fill="black"/>
<circle cx="20.125" cy="21.875" r="5.125" stroke="black" stroke-width="2"/>
</svg>
