<svg width="31" height="31" viewBox="0 0 31 31" fill="none" xmlns="http://www.w3.org/2000/svg">
<g clipPath="url(#clip0_205_6316)">
<path d="M30.2792 11.2547C27.5015 10.3198 24.7027 9.43507 21.9512 8.43254C20.2861 7.8235 18.6131 7.47011 16.8323 7.62049C16.7018 7.62802 16.5709 7.62802 16.4404 7.62049C16.3536 7.62049 16.2641 7.60796 16.1773 7.60294C16.1773 7.52525 16.1773 7.4676 16.1773 7.41246C16.1326 7.10419 16.2221 6.95381 16.5824 6.8335C17.1731 6.63643 17.6907 6.27962 18.0718 5.8067C18.453 5.33379 18.6813 4.76528 18.7288 4.17071C18.7762 3.57614 18.6407 2.98128 18.339 2.4589C18.0372 1.93651 17.5822 1.50925 17.0296 1.22936C16.5403 0.97735 15.9908 0.850427 15.4347 0.860957C14.8786 0.871487 14.3348 1.01911 13.8564 1.28944C13.3779 1.55977 12.9812 1.94358 12.7047 2.40348C12.4283 2.86337 12.2816 3.38366 12.279 3.91363H13.5469C13.5732 3.77829 13.5916 3.663 13.6153 3.55021C13.7159 3.08877 13.9998 2.68224 14.4077 2.41555C14.8155 2.14886 15.3157 2.04265 15.8038 2.1191C16.2736 2.18943 16.6994 2.42288 16.9993 2.77449C17.2991 3.1261 17.4519 3.571 17.428 4.02349C17.4042 4.47599 17.2055 4.90407 16.8701 5.2253C16.5348 5.54652 16.0866 5.73816 15.6118 5.7633C15.0857 5.78586 14.8463 6.01393 14.8437 6.5152C14.8437 6.86608 14.8437 7.21947 14.8437 7.60294H14.486C13.6074 7.60294 12.7314 7.60294 11.8555 7.60294C11.6553 7.60479 11.4565 7.63607 11.2663 7.69568C7.74321 8.88201 4.22277 10.0683 0.704962 11.2547C0.451694 11.3723 0.214868 11.5196 0 11.6933V15.2021C0.0897355 15.3454 0.221417 15.4606 0.378884 15.5336C0.53635 15.6067 0.712752 15.6343 0.886465 15.6132C1.97548 15.5906 3.06449 15.6132 4.15613 15.6132H4.36394V14.36H1.29682V13.6783C1.29682 13.3224 1.29682 12.9665 1.29682 12.6106C1.28387 12.5312 1.30421 12.4502 1.35343 12.385C1.40264 12.3199 1.47679 12.2757 1.55986 12.2622C4.49283 11.2847 7.4337 10.3198 10.3509 9.30224C11.2756 8.97366 12.2578 8.81711 13.2444 8.84107C15.1594 8.87866 17.0796 8.84107 18.9946 8.8536C19.1951 8.85509 19.394 8.88725 19.5838 8.94884C22.8578 10.0583 26.1345 11.1611 29.4138 12.2572C29.5052 12.2731 29.5865 12.3223 29.6405 12.3944C29.6945 12.4664 29.717 12.5556 29.7032 12.6432C29.6848 13.2071 29.7032 13.7735 29.7032 14.3575H25.5365L25.6523 15.6107H30.2714C30.758 15.6107 31 15.3851 31 14.9264C31 14.0242 31 13.1194 31 12.2171C30.9921 11.5504 30.9369 11.4627 30.2792 11.2547Z" fill="black"/>
<path d="M16.7879 13.5955C16.7879 13.2572 16.7879 12.9213 16.7879 12.593C16.7953 12.5037 16.782 12.4139 16.749 12.33C16.716 12.246 16.664 12.1701 16.5967 12.1074C16.5295 12.0448 16.4486 11.997 16.3598 11.9674C16.271 11.9379 16.1765 11.9272 16.0829 11.9363H5.2454C5.14679 11.923 5.04627 11.9314 4.95162 11.961C4.85697 11.9905 4.77073 12.0404 4.69954 12.1068C4.62835 12.1732 4.57412 12.2542 4.54106 12.3438C4.508 12.4333 4.49699 12.5288 4.50887 12.6231C4.50887 13.0943 4.50887 13.5655 4.50887 14.0366V27.7011C4.50225 27.7971 4.50225 27.8934 4.50887 27.9894C4.51771 28.1447 4.59074 28.2905 4.71198 28.3947C4.83323 28.499 4.99284 28.5533 5.15597 28.5458C5.56895 28.5458 5.98193 28.5458 6.4291 28.5458V29.7588H7.72329V28.5483H9.01485V29.7488H10.3301V28.5483H11.6006V29.7513H12.8974V28.5533H14.1837V29.7488H15.47V28.5483C15.7015 28.5483 15.9093 28.5483 16.1171 28.5483C16.2005 28.5527 16.284 28.541 16.3625 28.5141C16.4411 28.4872 16.5132 28.4454 16.5746 28.3914C16.6359 28.3374 16.6852 28.2722 16.7196 28.1997C16.754 28.1272 16.7727 28.0489 16.7747 27.9693C16.7747 27.8164 16.7747 27.661 16.7747 27.5081L16.7879 13.5955ZM15.4726 27.2926H5.83198V26.1021H15.4884L15.4726 27.2926ZM15.4726 24.8364H5.81884V13.187H15.4726V24.8364Z" fill="#F703D0"/>
<path d="M16.9507 14.3755V15.6387H18.2712L18.3922 14.3755H16.9507Z" fill="black"/>
<path d="M26.4202 25.386L26.0335 21.3408L25.631 17.1251C25.5837 16.6239 25.5416 16.1377 25.4943 15.6213L25.3811 14.3682C25.3206 13.7541 25.2601 13.1526 25.197 12.5511C25.1988 12.464 25.181 12.3775 25.1447 12.2976C25.1084 12.2176 25.0545 12.146 24.9867 12.0875C24.9189 12.0291 24.8387 11.9852 24.7515 11.9588C24.6644 11.9324 24.5723 11.9241 24.4815 11.9345H19.4574C19.3614 11.9247 19.2642 11.9347 19.1727 11.964C19.0812 11.9933 18.9974 12.0412 18.9271 12.1043C18.8569 12.1674 18.8018 12.2443 18.7657 12.3297C18.7297 12.415 18.7135 12.5068 18.7182 12.5987C18.6682 13.1877 18.6077 13.7792 18.5498 14.3757L18.4288 15.6289L18.3894 16.0574V16.1803C18.3552 16.5662 18.3236 16.9472 18.2868 17.3257C18.1535 18.7325 18.0185 20.1386 17.8817 21.5438C17.7502 22.9198 17.6187 24.3008 17.4766 25.6742C17.4406 25.8611 17.4544 26.0537 17.517 26.2341C17.5795 26.4145 17.6886 26.5771 17.8344 26.7068C18.9865 27.7695 20.1097 28.8623 21.254 29.9425C21.417 30.0954 21.5933 30.2357 21.7643 30.3811H22.1878C22.2962 30.3124 22.3999 30.237 22.4982 30.1555C23.8064 28.9157 25.1111 27.6718 26.4123 26.4236C26.4826 26.3483 26.5219 26.2512 26.5228 26.1504C26.4886 25.8998 26.4465 25.6442 26.4202 25.386ZM19.2785 20.4034C19.41 19.0166 19.5424 17.6297 19.6757 16.2429C19.773 15.2404 19.8703 14.2178 19.9703 13.1827C20.0887 13.1827 20.1834 13.1651 20.2807 13.1651C21.4013 13.1651 22.5218 13.1651 23.6424 13.1651C23.8844 13.1651 23.966 13.2278 23.987 13.4659C24.1291 15.0925 24.2921 16.7241 24.4473 18.3432C24.6052 20.0275 24.7683 21.7092 24.9208 23.3935C24.9214 23.434 24.9134 23.4743 24.8971 23.5118C24.8808 23.5493 24.8566 23.5832 24.8261 23.6115C23.8792 24.3634 22.9243 25.1278 21.9615 25.8923C21.0014 25.1404 20.0676 24.3885 19.147 23.6491C19.1015 23.6034 19.0663 23.5494 19.0432 23.4904C19.0202 23.4314 19.0098 23.3686 19.0128 23.3057C19.0917 22.3358 19.189 21.3684 19.2785 20.4034ZM24.8024 26.2156C23.8344 27.0728 22.9217 27.9851 21.9668 28.8974C20.9146 27.8948 19.9019 26.9299 18.8892 25.9524C18.8218 25.8742 18.7864 25.7754 18.7892 25.6742C18.7892 25.4762 18.8313 25.2782 18.8602 25.0351L20.086 26.0076L21.4591 27.0953C21.8432 27.3961 22.0957 27.4011 22.4798 27.0953C23.2505 26.4888 24.0133 25.8772 24.7814 25.2682L25.0629 25.0577C25.1628 25.5113 25.2049 25.8622 24.7919 26.2156H24.8024Z" fill="#F703D0"/>
</g>
<defs>
<clipPath id="clip0_205_6316">
<rect width="31" height="29.5596" fill="white" transform="translate(0 0.828613)"/>
</clipPath>
</defs>
</svg>
