<svg width="20" height="19" viewBox="0 0 20 19" fill="none" xmlns="http://www.w3.org/2000/svg">
<path d="M19 9.50189H16V0.953586C16.0007 0.78622 15.9548 0.62165 15.867 0.47654C15.7792 0.33143 15.6526 0.210933 15.5 0.127251C15.348 0.0438873 15.1755 0 15 0C14.8245 0 14.652 0.0438873 14.5 0.127251L11.5 1.76093L8.5 0.127251C8.34799 0.0438873 8.17554 0 8 0C7.82447 0 7.65202 0.0438873 7.50001 0.127251L4.50001 1.76093L1.50001 0.127251C1.34799 0.0438873 1.17554 0 1.00001 0C0.824471 0 0.652027 0.0438873 0.500008 0.127251C0.347403 0.210933 0.220789 0.33143 0.132986 0.47654C0.0451828 0.62165 -0.000691684 0.78622 7.88288e-06 0.953586V16.1506C7.88288e-06 16.9063 0.316078 17.631 0.878687 18.1654C1.4413 18.6998 2.20436 19 3.00001 19H17C17.7957 19 18.5587 18.6998 19.1213 18.1654C19.6839 17.631 20 16.9063 20 16.1506V10.4517C20 10.1998 19.8946 9.95821 19.7071 9.78008C19.5196 9.60196 19.2652 9.50189 19 9.50189ZM3.00001 17.1004C2.73479 17.1004 2.48044 17.0003 2.2929 16.8222C2.10536 16.6441 2.00001 16.4025 2.00001 16.1506V2.59676L4.00001 3.67954C4.15434 3.75611 4.32588 3.7961 4.50001 3.7961C4.67413 3.7961 4.84567 3.75611 5.00001 3.67954L8 2.04587L11 3.67954C11.1543 3.75611 11.3259 3.7961 11.5 3.7961C11.6741 3.7961 11.8457 3.75611 12 3.67954L14 2.59676V16.1506C14.0027 16.4746 14.0636 16.7958 14.18 17.1004H3.00001ZM18 16.1506C18 16.4025 17.8946 16.6441 17.7071 16.8222C17.5196 17.0003 17.2652 17.1004 17 17.1004C16.7348 17.1004 16.4804 17.0003 16.2929 16.8222C16.1054 16.6441 16 16.4025 16 16.1506V11.4015H18V16.1506Z" fill="black"/>
<path d="M5 13.2H11C11.2652 13.2 11.5196 13.2948 11.7071 13.4636C11.8946 13.6324 12 13.8613 12 14.1C12 14.3387 11.8946 14.5676 11.7071 14.7364C11.5196 14.9052 11.2652 15 11 15H5C4.73478 15 4.48043 14.9052 4.29289 14.7364C4.10536 14.5676 4 14.3387 4 14.1C4 13.8613 4.10536 13.6324 4.29289 13.4636C4.48043 13.2948 4.73478 13.2 5 13.2Z" fill="#F703D0"/>
<path d="M9 7.8H7C6.73478 7.8 6.48043 7.70518 6.29289 7.5364C6.10536 7.36761 6 7.13869 6 6.9C6 6.66131 6.10536 6.43239 6.29289 6.2636C6.48043 6.09482 6.73478 6 7 6H9C9.26522 6 9.51957 6.09482 9.70711 6.2636C9.89464 6.43239 10 6.66131 10 6.9C10 7.13869 9.89464 7.36761 9.70711 7.5364C9.51957 7.70518 9.26522 7.8 9 7.8Z" fill="#F703D0"/>
<path d="M5 9.6H11C11.2652 9.6 11.5196 9.69482 11.7071 9.8636C11.8946 10.0324 12 10.2613 12 10.5C12 10.7387 11.8946 10.9676 11.7071 11.1364C11.5196 11.3052 11.2652 11.4 11 11.4H5C4.73478 11.4 4.48043 11.3052 4.29289 11.1364C4.10536 10.9676 4 10.7387 4 10.5C4 10.2613 4.10536 10.0324 4.29289 9.8636C4.48043 9.69482 4.73478 9.6 5 9.6Z" fill="#F703D0"/>
</svg>
