<svg width="24" height="23" viewBox="0 0 24 23" fill="none" xmlns="http://www.w3.org/2000/svg">
<path d="M11.6665 18.3837C9.9442 18.386 8.28192 17.7805 6.99984 16.6839C6.26491 16.0585 5.67706 15.2919 5.27491 14.4345C4.87277 13.577 4.66543 12.6482 4.66651 11.7089C4.66651 9.7321 5.56717 7.9555 6.99984 6.73402C8.28192 5.6374 9.9442 5.03192 11.6665 5.03419V18.3837Z" fill="#F703D0"/>
<path fill-rule="evenodd" clip-rule="evenodd" d="M0 11.7091C0 5.56495 5.22317 0.584473 11.6667 0.584473C18.1102 0.584473 23.3333 5.56495 23.3333 11.7091C23.3333 17.8532 18.1102 22.8336 11.6667 22.8336C5.22317 22.8336 0 17.8532 0 11.7091ZM11.6667 20.6087C9.19131 20.6087 6.81734 19.6711 5.067 18.0021C3.31666 16.3331 2.33333 14.0694 2.33333 11.7091C2.33333 9.34872 3.31666 7.08506 5.067 5.41604C6.81734 3.74703 9.19131 2.80939 11.6667 2.80939C14.142 2.80939 16.516 3.74703 18.2663 5.41604C20.0167 7.08506 21 9.34872 21 11.7091C21 14.0694 20.0167 16.3331 18.2663 18.0021C16.516 19.6711 14.142 20.6087 11.6667 20.6087Z" fill="black"/>
</svg>
