<svg width="20" height="20" viewBox="0 0 20 20" fill="none" xmlns="http://www.w3.org/2000/svg">
<path d="M17 2H15V1C15 0.4 14.6 0 14 0C13.4 0 13 0.4 13 1V2H7V1C7 0.4 6.6 0 6 0C5.4 0 5 0.4 5 1V2H3C1.3 2 0 3.3 0 5V7H20V5C20 3.3 18.7 2 17 2Z" fill="black"/>
<path d="M3 20C1.3 20 0 18.7 0 17V9H20V17C20 18.7 18.7 20 17 20H3Z" fill="#F703D0"/>
<path d="M5 1C5 0.447715 5.44772 0 6 0C6.55228 0 7 0.447715 7 1V2H5V1Z" fill="#F703D0"/>
<path d="M13 1C13 0.447715 13.4477 0 14 0C14.5523 0 15 0.447715 15 1V2H13V1Z" fill="#F703D0"/>
</svg>
