<svg width="61" height="61" viewBox="0 0 61 61" fill="none" xmlns="http://www.w3.org/2000/svg">
<path d="M47.5787 19.3225C47.5787 20.8213 46.9833 22.2587 45.9235 23.3185C44.8637 24.3783 43.4263 24.9737 41.9275 24.9737C40.4287 24.9737 38.9914 24.3783 37.9316 23.3185C36.8718 22.2587 36.2764 20.8213 36.2764 19.3225C36.2764 17.8238 36.8718 16.3864 37.9316 15.3266C38.9914 14.2668 40.4287 13.6714 41.9275 13.6714C43.4263 13.6714 44.8637 14.2668 45.9235 15.3266C46.9833 16.3864 47.5787 17.8238 47.5787 19.3225Z" fill="black"/>
<path fill-rule="evenodd" clip-rule="evenodd" d="M30.4639 0.25H30.7861C37.3103 0.25 42.4218 0.25 46.4115 0.786861C50.4917 1.33502 53.7128 2.48221 56.2417 5.00828C58.7706 7.53717 59.915 10.7583 60.4631 14.8413C61 18.8282 61 23.9397 61 30.4639V30.7126C61 36.1066 61 40.5202 60.7061 44.1143C60.4123 47.7311 59.8104 50.746 58.4598 53.2551C57.8664 54.3599 57.1318 55.3517 56.2417 56.2417C53.7128 58.7706 50.4917 59.915 46.4087 60.4631C42.4218 61 37.3103 61 30.7861 61H30.4639C23.9397 61 18.8282 61 14.8385 60.4631C10.7583 59.915 7.53717 58.7678 5.00828 56.2417C2.76759 54.001 1.6091 51.2122 0.995954 47.748C0.388454 44.3488 0.278256 40.119 0.255651 34.869C0.25 33.5325 0.25 32.1197 0.25 30.6278V30.4639C0.25 23.9397 0.25 18.8282 0.786861 14.8385C1.33502 10.7583 2.48221 7.53717 5.00828 5.00828C7.53717 2.47938 10.7583 1.33502 14.8413 0.786861C18.8282 0.25 23.9397 0.25 30.4639 0.25ZM15.4036 4.98567C11.7925 5.47167 9.61398 6.39846 8.00622 8.00622C6.39564 9.6168 5.47167 11.7925 4.98567 15.4064C4.49402 19.0797 4.48837 23.9058 4.48837 30.625V33.0098L7.31678 30.5318C8.55776 29.4461 10.165 28.8728 11.8129 28.9278C13.4608 28.9829 15.0262 29.6623 16.1919 30.8284L28.3137 42.9502C29.2543 43.8906 30.4966 44.4692 31.8218 44.5839C33.147 44.6986 34.4702 44.3423 35.5585 43.5775L36.4005 42.9841C37.9706 41.8808 39.8686 41.3429 41.7842 41.4584C43.6997 41.5739 45.5193 42.3359 46.9456 43.6199L54.942 50.8166C55.7501 49.1269 56.2276 46.906 56.4819 43.7724C56.7588 40.3676 56.7616 36.1236 56.7616 30.625C56.7616 23.9058 56.756 19.0797 56.2643 15.4064C55.7783 11.7925 54.8515 9.61398 53.2438 8.0034C51.6332 6.39564 49.4575 5.47167 45.8436 4.98567C42.1703 4.49402 37.3442 4.48837 30.625 4.48837C23.9058 4.48837 19.0768 4.49402 15.4036 4.98567Z" fill="#F703D0"/>
</svg>
