<svg width="12" height="20" viewBox="0 0 12 20" fill="none" xmlns="http://www.w3.org/2000/svg">
<path d="M1 11.5L5 6M5 6L4 19M5 6H7M5 6V11.5H7V6M11 11.5L7 6M7 6L8 19" stroke="#F703D0" stroke-width="2" stroke-linecap="round" stroke-linejoin="round"/>
<path d="M6.70711 2.70711C6.51957 2.89464 6.26522 3 6 3C5.73478 3 5.48043 2.89464 5.29289 2.70711C5.10536 2.51957 5 2.26522 5 2C5 1.73478 5.10536 1.48043 5.29289 1.29289C5.48043 1.10536 5.73478 1 6 1C6.26522 1 6.51957 1.10536 6.70711 1.29289C6.89464 1.48043 7 1.73478 7 2C7 2.26522 6.89464 2.51957 6.70711 2.70711Z" stroke="black" stroke-width="2" stroke-linecap="round" stroke-linejoin="round"/>
</svg>
