<svg width="31" height="20" viewBox="0 0 31 20" fill="none" xmlns="http://www.w3.org/2000/svg">
<path d="M31 12.4722V19.9858H28.1365V16.6176H27.0966V19.9798H23.1228V16.6097H22.0885V19.9807H18.1256V16.612H17.0913V19.9854H13.1356V16.6167H12.0941V19.9891C10.7645 20.0294 9.43357 19.9577 8.11873 19.775V16.2388H7.07512V19.6094C6.73277 19.5333 6.41628 19.4881 6.11995 19.3924C5.20615 19.0981 4.30113 18.7822 3.39095 18.4785C3.17892 18.4076 3.1029 18.2961 3.10548 18.0792C3.121 16.8975 3.11273 15.7159 3.11273 14.5337V14.2361H2.07481V17.7662C1.8302 17.5842 1.63471 17.4513 1.45423 17.3025C0.705915 16.6825 0.143256 15.965 0.0186229 15.0245C0.0085164 14.9627 0.00229509 14.9004 0 14.8379C0 12.8944 0 10.9485 0 9C0.0299947 9.0028 0.062067 9 0.0739614 9.00886C1.34408 10.2479 2.95035 10.9873 4.689 11.5248C6.86103 12.1961 9.10804 12.4666 11.3959 12.4685C17.7989 12.4738 24.2019 12.4738 30.6049 12.4685L31 12.4722Z" fill="#F703D0"/>
<path d="M11.105 12C9.00133 11.9915 6.57188 11.6317 4.25278 10.6604C3.13851 10.1944 2.09866 9.59896 1.24097 8.71794C0.496214 7.95368 -0.0122656 7.06895 0.000225099 5.95175C0.00959311 5.12328 0.324987 4.40466 0.824094 3.76619C1.6516 2.7079 2.74974 2.02432 3.93792 1.48403C5.52528 0.759578 7.19955 0.363119 8.92014 0.157195C10.4797 -0.0347728 12.0552 -0.0509692 13.6182 0.108898C16.0456 0.361527 18.3912 0.91296 20.4766 2.27376C21.0388 2.63934 21.5512 3.07906 22.0005 3.58149C23.3755 5.13283 23.3188 7.03127 21.911 8.5566C20.894 9.65999 19.621 10.3457 18.2517 10.8621C16.0726 11.68 13.8087 11.9989 11.105 12ZM11.945 8.21003C12.2942 8.15005 12.8818 8.08 13.4506 7.94466C14.1314 7.78172 14.7684 7.49778 15.2685 6.97554C15.8577 6.35882 15.8733 5.61686 15.256 5.03836C14.9279 4.72564 14.5466 4.47654 14.1308 4.30329C12.4092 3.6197 10.6641 3.62714 8.92638 4.26667C8.38356 4.46623 7.88862 4.76131 7.54252 5.25543C7.18914 5.76016 7.17508 6.33335 7.58519 6.78925C7.87189 7.10542 8.20906 7.36975 8.58237 7.57102C9.5556 8.09486 10.6241 8.2079 11.945 8.2079V8.21003Z" fill="black"/>
<path d="M23 9V11H19C20.4742 10.5073 21.8673 9.92546 23 9Z" fill="#F703D0"/>
</svg>
