<svg width="198" height="186" viewBox="0 0 198 186" fill="none" xmlns="http://www.w3.org/2000/svg">
<path d="M153.847 89.3899C153.704 91.2585 153.472 92.8345 153.481 94.4082C153.513 100.721 152.532 107.003 153.02 113.332C153.429 118.661 153.689 124 153.955 129.337C154.048 131.175 153.955 133.022 153.973 134.862C154.014 139.592 154.107 144.32 154.109 149.05C154.109 154.036 154.025 159.022 153.986 164.007C153.973 165.742 153.284 167.077 151.878 168.146C147.624 171.382 143.348 174.59 138.551 176.981C135.624 178.438 132.644 179.838 129.57 180.935C126.899 181.887 124.084 182.463 121.3 183.051C116.68 184.024 112.062 185.073 107.392 185.708C104.232 186.142 100.981 185.906 97.773 185.977C91.7762 186.137 85.7867 185.451 79.9813 183.937C72.9634 182.08 66.1188 179.758 59.9391 175.765C55.6721 173.006 51.1581 170.604 47.0448 167.638C44.0297 165.471 41.4825 162.64 38.7359 160.092C38.3959 159.776 38.1511 159.355 37.8132 159.032C36.8537 158.111 36.5136 156.962 36.5959 155.686C37.001 149.492 37.4623 143.301 37.8371 137.106C38.0566 133.464 38.201 129.819 38.2703 126.172C38.4544 117.397 38.645 108.613 38.7035 99.8471C38.7251 95.8064 38.4175 91.7658 38.2551 87.7251C38.2551 87.478 38.188 87.2331 38.1273 86.7973C37.5901 87.1875 37.1266 87.4845 36.7085 87.8357C33.4812 90.5562 30.2733 93.3005 27.0373 96.0123C26.0972 96.7992 25.1182 97.5449 24.1088 98.2386C22.8807 99.0818 21.6136 99.1469 20.4266 98.1281C16.8223 95.0239 13.2029 91.9349 9.63545 88.7852C6.87594 86.3508 4.19658 83.8254 1.46089 81.3607C-0.198281 79.8628 -0.436539 79.1388 0.70712 77.242C3.70489 72.2693 6.85212 67.3854 9.8304 62.3996C14.405 54.7367 20.3962 48.1403 25.742 41.0583C27.5246 38.6955 29.4416 36.4346 31.222 34.0696C32.8404 31.8882 34.9651 30.1339 37.4125 28.9581C41.4673 26.9963 45.4593 24.9066 49.4946 22.9058C54.1407 20.6037 58.8085 18.3341 63.4676 16.058C64.243 15.6786 65.0315 15.3188 65.8329 14.998C66.5195 14.7226 66.8531 14.3325 66.7946 13.5304C66.7517 12.999 66.8783 12.4677 67.1563 12.013C69.1635 9.1935 71.2082 6.40003 73.2905 3.63257C74.1179 2.52919 75.2269 2.00677 76.6587 1.74447C84.0729 0.391812 91.5327 -0.312697 99.0531 0.133855C104.048 0.428665 109.017 1.05731 113.999 1.5884C117.222 1.9309 120.427 2.4685 123.655 2.72646C125.388 2.86736 126.75 3.55019 127.738 4.83999C129.754 7.46944 131.966 10.0274 133.48 12.9364C134.546 14.9828 136.051 16.0558 137.847 17.1115C145.428 21.5662 153.381 25.3618 160.59 30.4603C163.4 32.4869 166.019 34.7668 168.413 37.2713C171.762 40.7072 175.273 43.9913 178.451 47.5789C181.628 51.1664 184.492 55.0293 187.466 58.7947C188.224 59.755 188.872 60.8042 189.591 61.797C191.2 64.0189 192.686 66.2842 193.765 68.8529C194.681 71.0206 196.013 73.041 197.248 75.0721C197.865 76.0888 197.839 76.9602 197.128 77.8555C192.047 84.2734 186.965 90.692 181.882 97.1114C180.775 98.5096 179.324 98.4619 177.844 98.0457C175.314 97.3325 172.767 96.6432 170.302 95.7392C166.449 94.328 162.663 92.7369 158.837 91.2455C157.274 90.6104 155.684 90.0619 153.847 89.3899ZM66.8812 16.7039C63.9008 18.1477 61.1413 19.4526 58.4078 20.8118C54.0562 22.9795 49.7047 25.1472 45.3856 27.3735C43.6268 28.2818 42.0305 29.5412 40.2175 30.3021C37.1569 31.5832 34.7288 33.5819 32.6711 36.1051C27.4452 42.51 22.228 48.9236 17.0194 55.3458C11.4137 62.2956 7.42611 70.2576 2.99876 77.9444C2.56556 78.6857 2.75616 79.1626 3.34749 79.7067C8.69323 84.6101 13.8895 89.6913 19.4042 94.3952C22.3825 96.9358 21.7977 96.9813 25.1225 94.5101C28.7398 91.8221 32.2292 88.9607 35.7772 86.1774C36.427 85.6636 37.0595 85.1195 37.7461 84.66C38.6125 84.0725 39.572 84.3001 40.0074 85.2496C40.2629 85.8436 40.4096 86.4787 40.4406 87.1247C40.5402 88.783 40.5857 90.4456 40.603 92.1104C40.642 96.4784 40.7114 100.849 40.6594 105.217C40.6247 108.169 40.3388 111.119 40.2868 114.072C40.1893 119.378 40.4038 124.694 40.0875 129.994C39.6197 137.882 38.4695 145.72 38.9201 153.67C38.9978 155.753 39.8184 157.74 41.2334 159.271C45.3921 163.975 50.4433 167.597 55.6829 170.92C64.4704 176.496 73.9706 180.413 84.2311 182.34C87.0469 182.871 89.9039 183.181 92.8735 183.61C92.8735 182.899 92.8735 182.474 92.8735 182.052C92.8951 175.481 92.8583 168.909 92.958 162.34C93.0923 153.565 93.3435 144.793 93.5211 136.02C93.6186 131.251 93.5991 126.482 93.7377 121.713C93.8937 116.807 94.2792 111.908 94.4049 107.001C94.5608 100.972 94.5651 94.9372 94.6215 88.9065C94.7023 79.3035 94.7745 69.6998 94.8381 60.0953C94.8554 57.4377 94.8381 54.7822 94.8381 52.0292C93.1052 53.2778 92.9363 53.2778 91.2121 52.1571C90.9695 52.001 90.7118 51.8688 90.4627 51.7235C86.3278 49.2914 82.1495 46.9264 78.0666 44.4075C74.6139 42.2788 71.458 39.749 68.8047 36.647C68.4169 36.194 67.9989 35.6434 67.9036 35.0841C67.4985 32.6996 67.0242 30.3151 66.9159 27.9306C66.7599 24.278 66.8812 20.6275 66.8812 16.7039ZM134.663 17.6751C134.459 21.5922 134.446 25.6957 133.95 29.7211C133.718 31.6396 132.65 33.48 131.825 35.2879C131.528 35.9382 130.818 36.4042 130.281 36.9353C127.933 39.2678 125.732 41.7759 123.185 43.8721C119.999 46.5102 116.552 48.8405 113.171 51.2423C112.697 51.5783 111.872 51.7929 111.367 51.6238C110.599 51.3363 109.914 50.8635 109.372 50.2473C108.538 49.3412 107.856 48.2964 106.989 47.1236C106.989 49.1006 107.018 50.8565 106.989 52.6102C106.881 58.4175 106.691 64.2248 106.645 70.0343C106.606 75.2716 106.816 80.5088 106.734 85.7438C106.604 94.0094 106.212 102.273 106.127 110.538C106.013 122.027 106.127 133.516 106.054 144.988C106.021 150.407 105.85 155.826 105.66 161.235C105.46 166.932 105.194 172.628 104.891 178.321C104.802 180.029 104.49 181.724 104.269 183.523C104.793 183.556 105.318 183.556 105.841 183.523C107.767 183.25 109.703 183.014 111.61 182.637C119.84 181 128.056 179.413 135.897 176.188C140.852 174.196 145.388 171.288 149.268 167.617C150.99 165.982 151.902 164.257 151.846 161.779C151.733 157.01 151.945 152.252 152.023 147.489C152.069 144.708 152.253 141.923 152.142 139.15C151.839 131.539 151.384 123.935 151.059 116.326C150.901 112.754 150.81 109.173 150.825 105.602C150.838 102.249 151.005 98.8954 151.148 95.542C151.25 93.1986 151.354 90.8532 151.581 88.5207C151.726 87.0835 152.721 86.535 154.072 87.0401C156.264 87.8574 158.461 88.6746 160.598 89.6219C166.447 92.2232 172.414 94.4212 178.706 95.6677C179.551 95.8368 180.112 95.581 180.645 94.8808C181.908 93.2203 183.244 91.6119 184.589 90.0186C185.521 88.9174 186.61 87.9397 187.474 86.7908C189.857 83.6216 192.157 80.3809 194.527 77.1987C194.984 76.5852 194.997 76.1148 194.65 75.4515C193.502 73.2491 192.424 71.0098 191.323 68.7814C190.91 67.9425 190.609 67.0299 190.087 66.2668C188.514 63.9806 186.895 61.7269 185.23 59.5057C181.932 55.116 178.574 50.7828 174.433 47.1193C172.733 45.6171 171.197 43.9327 169.572 42.3503C166.354 39.2006 163.33 35.8038 159.847 32.9749C155.493 29.4437 150.81 26.3655 145.612 24.0374C141.732 22.2707 138.21 19.7539 134.663 17.6642V17.6751ZM102.701 183.465C102.701 182.511 102.655 181.614 102.701 180.723C103.041 174.779 103.602 168.839 103.704 162.891C103.836 155.063 103.576 147.227 103.556 139.395C103.541 133.475 103.628 127.555 103.695 121.633C103.753 116.4 103.844 111.165 103.912 105.932C104.056 96.6829 104.195 87.4404 104.33 78.2045C104.377 75.135 104.375 72.0633 104.509 68.9982C104.834 61.461 105.246 53.926 105.56 46.3888C105.557 45.684 105.325 44.9993 104.899 44.4378C103.972 43.2917 102.977 42.2022 101.919 41.1754C101.618 40.8885 101.221 40.724 100.805 40.7137C100.559 40.7137 100.242 41.1299 100.101 41.4269C98.9578 43.8309 97.8293 46.2435 96.7398 48.6714C96.4717 49.2043 96.3238 49.7897 96.3066 50.3861C96.5449 56.7353 97.0062 63.0846 97.0582 69.436C97.1254 77.7016 96.8784 85.9693 96.7658 94.237C96.6835 100.194 96.6575 106.159 96.5037 112.108C96.3673 117.41 96.0142 122.708 95.9016 128.01C95.7954 132.996 95.9276 137.982 95.8626 142.967C95.8092 147.225 95.6807 151.482 95.4771 155.74C95.3449 158.586 94.9225 161.419 94.8272 164.265C94.6626 169.535 94.6453 174.807 94.5738 180.079C94.5586 181.184 94.5738 182.29 94.5738 183.465H102.701ZM124.398 17.2806C124.53 14.5167 124.723 11.7507 124.777 8.98034C124.831 6.25551 124.344 5.68757 121.716 4.95704C121.404 4.87033 121.086 4.7988 120.768 4.74027C113.163 3.40062 105.562 2.17585 97.7795 2.44681C91.0064 2.68526 84.2202 2.56604 77.5445 4.03359C76.9402 4.16799 76.6781 4.37392 76.6522 4.99606C76.6153 6.6522 76.4355 8.31269 76.5049 9.96233C76.6132 12.3945 76.8904 14.8224 77.1027 17.3087C92.8453 15.5767 108.495 16.201 124.398 17.2806ZM106.911 18.2214C106.911 19.7691 106.924 20.957 106.911 22.1449C106.888 23.7491 106.249 24.5533 104.663 24.8243C103.77 24.948 102.87 25.011 101.969 25.0128C99.952 25.0779 97.9268 25.0302 95.9189 25.1884C94.433 25.3033 93.8309 25.015 93.5688 23.5605C93.4579 22.92 93.3935 22.2723 93.376 21.6225C93.3435 20.7012 93.376 19.7778 93.376 19.0082H77.1113C77.4168 20.3609 77.6182 21.4122 77.8933 22.4419C78.2398 23.7295 78.8788 24.7809 80.1026 25.4984C81.7488 26.4631 83.3127 27.5664 84.9069 28.6221C89.475 31.6569 94.0323 34.6917 98.6178 37.6875C99.0573 37.9711 99.5826 38.0908 100.101 38.0257C103.356 37.387 106.52 36.3503 109.522 34.9389C113.08 33.2827 116.734 31.8368 120.313 30.2197C120.917 29.9311 121.39 29.4237 121.636 28.7999C122.327 26.6061 122.873 24.3669 123.434 22.1341C123.629 21.3515 123.713 20.5387 123.887 19.5046L106.911 18.2214ZM92.7608 50.3297C93.3587 49.5103 94.015 48.8123 94.4373 47.9886C95.6005 45.7233 96.6922 43.4212 97.7362 41.0974C97.8597 40.8221 97.6171 40.1544 97.342 39.9658C91.2165 35.7648 85.1256 31.5117 78.8788 27.497C76.7756 26.1466 75.7598 24.4319 75.3244 22.1384C74.3973 17.2502 73.9836 12.3533 74.8912 7.3979C74.9908 6.85814 74.9042 6.28369 74.9042 5.39276C74.289 6.04308 73.8797 6.42894 73.5223 6.86031C72.4652 8.14144 71.4169 9.4269 70.3923 10.734C69.5025 11.7998 69.0204 13.1475 69.0321 14.5362C69.0776 18.9779 69.0083 23.4239 69.1317 27.8591C69.1837 29.7558 69.5649 31.6439 69.8638 33.5255C69.9337 33.9881 70.1284 34.4228 70.427 34.7828C71.4017 35.8927 72.4111 36.9787 73.4594 38.0127C77.5575 42.0251 82.5567 44.7326 87.4801 47.5117C89.2086 48.485 90.9739 49.3824 92.7608 50.3384V50.3297ZM126.744 7.66453C126.789 8.33002 126.861 8.99335 126.88 9.66101C126.99 13.7394 126.674 17.8182 125.936 21.8306C125.411 24.7072 125.045 27.6119 123.843 30.3173C123.438 31.2277 122.888 31.9127 121.844 32.1056C121.46 32.2021 121.087 32.3425 120.735 32.524C115.794 34.7192 110.856 36.9194 105.922 39.1247C105.387 39.3632 104.888 39.6883 104.405 39.9571L111.657 49.1288C112.346 48.6584 112.859 48.2617 113.414 47.9387C117.486 45.5716 121.324 42.8922 124.558 39.4325C126.074 37.8024 127.499 36.0704 129.05 34.4706C130.513 33.0015 131.413 31.065 131.593 28.9993C131.897 25.1949 131.81 21.3624 131.936 17.5429C132.083 13.2681 129.096 10.6538 126.744 7.66453ZM104.819 18.837C101.834 18.3232 98.9903 18.9107 96.1398 19.1318C95.9427 19.147 95.6048 19.4635 95.6113 19.6304C95.6525 20.6882 95.7716 21.7439 95.8496 22.6175C98.6004 22.6175 101.152 22.65 103.701 22.585C104.078 22.585 104.726 22.1514 104.767 21.8588C104.904 20.879 104.819 19.8688 104.819 18.837Z" fill="black"/>
<path d="M141.033 85.5072C141.033 88.9365 140.97 92.368 141.061 95.7952C141.104 97.4448 140.606 98.6804 139.367 99.786C136.551 102.307 133.84 104.965 131.026 107.497C129.796 108.604 128.427 109.558 127.095 110.547C125.964 111.388 124.731 111.175 123.603 110.607C122.351 109.976 121.084 109.307 119.996 108.44C116.531 105.663 113.174 102.764 109.74 99.9529C108.532 98.9644 108.008 97.7331 107.865 96.2135C107.323 90.6251 107.408 85.0324 107.648 79.4375C107.754 77.053 108.265 76.639 110.624 76.639C119.356 76.639 128.087 76.6346 136.816 76.626C137.177 76.626 137.539 76.639 137.899 76.6542C140.186 76.7474 140.886 77.4475 140.931 79.7692C140.961 81.6833 140.931 83.5974 140.931 85.5115L141.033 85.5072ZM109.537 85.3966C109.825 89.0254 110.111 92.3962 110.351 95.7692C110.38 96.3461 110.532 96.9102 110.798 97.4231C111.063 97.9359 111.436 98.3854 111.891 98.7411C115.041 101.325 118.142 103.97 121.331 106.502C122.277 107.252 123.425 107.774 124.541 108.268C124.961 108.453 125.682 108.448 126.035 108.201C127.779 106.987 129.549 105.778 131.113 104.347C133.506 102.157 135.756 99.8098 138.018 97.4817C138.374 97.0871 138.581 96.5801 138.603 96.0488C138.642 92.4395 138.603 88.8281 138.603 85.2102C138.578 85.0517 138.534 84.8967 138.473 84.7485C137.834 84.8048 137.229 84.8633 136.623 84.9132C133.322 85.1863 130.025 85.622 126.72 85.6849C122.866 85.7564 119.007 85.4855 115.149 85.3944C113.377 85.3619 111.614 85.3966 109.537 85.3966ZM138.592 83.58C138.52 82.2274 138.483 80.9332 138.351 79.65C138.328 79.4332 137.918 79.0863 137.669 79.0603C136.415 78.9156 135.154 78.8345 133.892 78.8175C127.757 78.7959 121.62 78.7959 115.48 78.8175C113.763 78.8175 112.047 78.9866 110.282 79.0798C110.085 80.8877 109.894 82.6241 109.697 84.4298C119.375 82.9384 128.962 84.5534 138.592 83.58Z" fill="black"/>
<path d="M96.7422 133.545C96.7964 131.594 98.0981 130.218 99.8526 130.278C101.466 130.335 102.385 131.362 102.333 133.029C102.272 135.052 101.1 136.367 99.4064 136.32C97.5869 136.266 96.6924 135.333 96.7422 133.545ZM98.6071 133.842C98.7978 133.968 99.1248 134.362 99.4584 134.367C100.414 134.377 100.587 133.558 100.624 132.849C100.637 132.596 100.169 132.156 99.8548 132.082C99.2396 131.937 98.5963 132.754 98.6071 133.84V133.842Z" fill="black"/>
<path d="M101.617 163.997C101.585 166.052 100.292 167.622 98.6455 167.6C97.2094 167.583 96.0831 166.273 96.1221 164.663C96.1697 162.67 97.1596 161.548 98.8274 161.593C100.708 161.645 101.641 162.449 101.617 163.997ZM97.673 164.864C98.0563 165.194 98.3942 165.66 98.8383 165.816C99.3191 165.987 100.177 164.929 100.179 164.24C100.179 163.477 99.6245 163.297 99.0159 163.282C98.0975 163.256 97.9069 163.893 97.673 164.864Z" fill="black"/>
<path d="M98.0178 105.869C98.0417 103.998 99.1593 102.834 100.92 102.834C102.601 102.834 103.533 103.679 103.52 105.171C103.52 107.087 102.285 108.639 100.808 108.596C99.0575 108.559 97.9983 107.531 98.0178 105.869ZM99.2308 105.728C99.8806 106.248 100.225 106.747 100.617 106.788C101.399 106.872 101.687 106.229 101.793 105.535C101.908 104.776 101.345 104.484 100.832 104.59C100.357 104.687 99.9629 105.184 99.2308 105.728Z" fill="black"/>
<path d="M101.337 49.9885C99.6045 49.9495 98.5215 48.883 98.5453 47.229C98.5583 45.7723 99.7345 44.5779 101.145 44.5974C102.745 44.6212 103.878 45.7203 103.837 47.2117C103.781 48.9307 102.802 50.0211 101.337 49.9885ZM102.47 47.4761C102.487 46.6091 102.082 46.1061 101.203 46.1018C100.38 46.1018 99.9749 46.6199 99.9229 47.3894C99.8709 48.159 100.573 48.7811 101.389 48.7659C102.234 48.7508 102.461 48.2023 102.47 47.4848V47.4761Z" fill="black"/>
<path d="M100.903 79.5013C99.6206 79.4622 98.6849 78.8509 98.4834 77.9839C98.1715 76.6355 98.9729 75.0531 100.249 74.4917C101.252 74.0581 102.768 74.3182 103.314 75.1246C103.987 76.1239 103.576 77.1428 103.153 78.0987C102.731 79.0547 101.947 79.5858 100.903 79.5013ZM102.226 76.3906C102.01 76.2215 101.691 75.7684 101.273 75.6557C100.658 75.491 99.8913 76.4166 99.822 77.2382C99.7527 78.0597 100.318 78.2223 100.905 78.322C101.492 78.4217 102.174 77.5742 102.237 76.3906H102.226Z" fill="black"/>
</svg>
