<svg width="82" height="82" viewBox="0 0 82 82" fill="none" xmlns="http://www.w3.org/2000/svg">
<path d="M65.8859 46.5122C64.858 46.5122 63.8722 46.9208 63.1454 47.648C62.4186 48.3752 62.0102 49.3615 62.0102 50.3899V51.8634L56.2743 46.1245C54.249 44.1141 51.5116 42.986 48.6587 42.986C45.8057 42.986 43.0683 44.1141 41.043 46.1245L38.3301 48.8388L28.7185 39.2223C26.6649 37.2664 23.9381 36.1756 21.1029 36.1756C18.2676 36.1756 15.5409 37.2664 13.4872 39.2223L7.75128 44.9612V23.2464C7.75128 22.218 8.15961 21.2317 8.88643 20.5045C9.61325 19.7774 10.599 19.3688 11.6269 19.3688H38.7564C39.7843 19.3688 40.7701 18.9603 41.4969 18.2331C42.2237 17.5059 42.632 16.5196 42.632 15.4912C42.632 14.4628 42.2237 13.4765 41.4969 12.7493C40.7701 12.0221 39.7843 11.6136 38.7564 11.6136H11.6269C8.54327 11.6136 5.58592 12.8392 3.40545 15.0208C1.22498 17.2023 0 20.1612 0 23.2464V69.778C0 72.8633 1.22498 75.8221 3.40545 78.0037C5.58592 80.1853 8.54327 81.4109 11.6269 81.4109H58.1346C61.2183 81.4109 64.1756 80.1853 66.3561 78.0037C68.5365 75.8221 69.7615 72.8633 69.7615 69.778V50.3899C69.7615 49.3615 69.3532 48.3752 68.6264 47.648C67.8996 46.9208 66.9138 46.5122 65.8859 46.5122ZM11.6269 73.6556C10.599 73.6556 9.61325 73.2471 8.88643 72.5199C8.15961 71.7927 7.75128 70.8064 7.75128 69.778V55.9349L18.9906 44.6897C19.56 44.1469 20.3164 43.8441 21.1029 43.8441C21.8894 43.8441 22.6457 44.1469 23.2151 44.6897L35.5009 56.9818L52.1661 73.6556H11.6269ZM62.0102 69.778C62.0047 70.5203 61.76 71.241 61.3126 71.8332L43.8335 54.2675L46.5464 51.5532C46.8243 51.2694 47.1559 51.044 47.522 50.8901C47.888 50.7362 48.281 50.657 48.678 50.657C49.0751 50.657 49.4681 50.7362 49.8341 50.8901C50.2001 51.044 50.5318 51.2694 50.8096 51.5532L62.0102 62.8371V69.778ZM80.2645 12.7381L68.6376 1.10518C68.269 0.752155 67.8344 0.475428 67.3586 0.290875C66.4151 -0.0969582 65.3567 -0.0969582 64.4131 0.290875C63.9374 0.475428 63.5028 0.752155 63.1342 1.10518L51.5073 12.7381C50.7775 13.4682 50.3675 14.4586 50.3675 15.4912C50.3675 16.5238 50.7775 17.5141 51.5073 18.2443C52.2371 18.9745 53.2269 19.3847 54.259 19.3847C55.291 19.3847 56.2809 18.9745 57.0107 18.2443L62.0102 13.2034V34.8793C62.0102 35.9078 62.4186 36.894 63.1454 37.6212C63.8722 38.3484 64.858 38.757 65.8859 38.757C66.9138 38.757 67.8996 38.3484 68.6264 37.6212C69.3532 36.894 69.7615 35.9078 69.7615 34.8793V13.2034L74.7611 18.2443C75.1214 18.6077 75.55 18.8962 76.0223 19.0931C76.4946 19.2899 77.0012 19.3913 77.5128 19.3913C78.0244 19.3913 78.531 19.2899 79.0033 19.0931C79.4756 18.8962 79.9042 18.6077 80.2645 18.2443C80.6278 17.8838 80.9161 17.455 81.1128 16.9824C81.3096 16.5099 81.4109 16.0031 81.4109 15.4912C81.4109 14.9793 81.3096 14.4725 81.1128 13.9999C80.9161 13.5274 80.6278 13.0985 80.2645 12.7381Z" fill="#8C8C8C"/>
</svg>
