<svg width="34" height="44" viewBox="0 0 34 44" fill="none" xmlns="http://www.w3.org/2000/svg">
<path d="M17 27.5C21.8373 27.5 25.7576 23.8071 25.7576 19.25V8.25C25.7576 3.69286 21.8373 0 17 0C12.1627 0 8.24242 3.69286 8.24242 8.25V19.25C8.24242 23.8071 12.1627 27.5 17 27.5ZM34 19.1518C34 18.9357 33.8145 18.7589 33.5879 18.7589H30.497C30.2703 18.7589 30.0849 18.9357 30.0849 19.1518C30.0849 26.0415 24.2276 31.625 17 31.625C9.77242 31.625 3.91515 26.0415 3.91515 19.1518C3.91515 18.9357 3.7297 18.7589 3.50303 18.7589H0.412121C0.185455 18.7589 0 18.9357 0 19.1518C0 27.4362 6.52182 34.2719 14.9394 35.2393V40.2679H7.45424C6.74849 40.2679 6.18182 40.9701 6.18182 41.8393V43.6071C6.18182 43.8232 6.32606 44 6.50121 44H27.4988C27.6739 44 27.8182 43.8232 27.8182 43.6071V41.8393C27.8182 40.9701 27.2515 40.2679 26.5458 40.2679H18.8545V35.2638C27.37 34.3799 34 27.5049 34 19.1518Z" fill="#F703D0"/>
</svg>
